<svg xmlns="http://www.w3.org/2000/svg" width="900" height="220" viewBox="0 0 900 220">
  <defs>
    <style>
      .bg { fill: #000; }
      .card { fill: #050a05; stroke: #00ff41; stroke-width: 1.2; }
      .t { font-family: Consolas, Monaco, "Courier New", monospace; fill: #00ff41; }
      .h { font-size: 22px; font-weight: 700; }
      .s { font-size: 14px; opacity: 0.95; }
      .k { font-size: 12px; opacity: 0.80; }
      .v { font-size: 16px; font-weight: 700; }
      .muted { opacity: 0.65; }
      .red { fill: #ff0033; }
      .blue { fill: #0099ff; }
    </style>
    <filter id="glow">
      <feGaussianBlur stdDeviation="1.2" result="coloredBlur"/>
      <feMerge>
        <feMergeNode in="coloredBlur"/>
        <feMergeNode in="SourceGraphic"/>
      </feMerge>
    </filter>
  </defs>

  <rect class="bg" x="0" y="0" width="900" height="220"/>
  <rect class="card" x="14" y="14" rx="14" ry="14" width="872" height="192"/>
  <rect x="0" y="0" width="900" height="1" fill="#00ff41" opacity="0.05"/>
<rect x="0" y="4" width="900" height="1" fill="#00ff41" opacity="0.05"/>
<rect x="0" y="8" width="900" height="1" fill="#00ff41" opacity="0.05"/>
<rect x="0" y="12" width="900" height="1" fill="#00ff41" opacity="0.05"/>
<rect x="0" y="16" width="900" height="1" fill="#00ff41" opacity="0.05"/>
<rect x="0" y="20" width="900" height="1" fill="#00ff41" opacity="0.05"/>
<rect x="0" y="24" width="900" height="1" fill="#00ff41" opacity="0.05"/>
<rect x="0" y="28" width="900" height="1" fill="#00ff41" opacity="0.05"/>
<rect x="0" y="32" width="900" height="1" fill="#00ff41" opacity="0.05"/>
<rect x="0" y="36" width="900" height="1" fill="#00ff41" opacity="0.05"/>
<rect x="0" y="40" width="900" height="1" fill="#00ff41" opacity="0.05"/>
<rect x="0" y="44" width="900" height="1" fill="#00ff41" opacity="0.05"/>
<rect x="0" y="48" width="900" height="1" fill="#00ff41" opacity="0.05"/>
<rect x="0" y="52" width="900" height="1" fill="#00ff41" opacity="0.05"/>
<rect x="0" y="56" width="900" height="1" fill="#00ff41" opacity="0.05"/>
<rect x="0" y="60" width="900" height="1" fill="#00ff41" opacity="0.05"/>
<rect x="0" y="64" width="900" height="1" fill="#00ff41" opacity="0.05"/>
<rect x="0" y="68" width="900" height="1" fill="#00ff41" opacity="0.05"/>
<rect x="0" y="72" width="900" height="1" fill="#00ff41" opacity="0.05"/>
<rect x="0" y="76" width="900" height="1" fill="#00ff41" opacity="0.05"/>
<rect x="0" y="80" width="900" height="1" fill="#00ff41" opacity="0.05"/>
<rect x="0" y="84" width="900" height="1" fill="#00ff41" opacity="0.05"/>
<rect x="0" y="88" width="900" height="1" fill="#00ff41" opacity="0.05"/>
<rect x="0" y="92" width="900" height="1" fill="#00ff41" opacity="0.05"/>
<rect x="0" y="96" width="900" height="1" fill="#00ff41" opacity="0.05"/>
<rect x="0" y="100" width="900" height="1" fill="#00ff41" opacity="0.05"/>
<rect x="0" y="104" width="900" height="1" fill="#00ff41" opacity="0.05"/>
<rect x="0" y="108" width="900" height="1" fill="#00ff41" opacity="0.05"/>
<rect x="0" y="112" width="900" height="1" fill="#00ff41" opacity="0.05"/>
<rect x="0" y="116" width="900" height="1" fill="#00ff41" opacity="0.05"/>
<rect x="0" y="120" width="900" height="1" fill="#00ff41" opacity="0.05"/>
<rect x="0" y="124" width="900" height="1" fill="#00ff41" opacity="0.05"/>
<rect x="0" y="128" width="900" height="1" fill="#00ff41" opacity="0.05"/>
<rect x="0" y="132" width="900" height="1" fill="#00ff41" opacity="0.05"/>
<rect x="0" y="136" width="900" height="1" fill="#00ff41" opacity="0.05"/>
<rect x="0" y="140" width="900" height="1" fill="#00ff41" opacity="0.05"/>
<rect x="0" y="144" width="900" height="1" fill="#00ff41" opacity="0.05"/>
<rect x="0" y="148" width="900" height="1" fill="#00ff41" opacity="0.05"/>
<rect x="0" y="152" width="900" height="1" fill="#00ff41" opacity="0.05"/>
<rect x="0" y="156" width="900" height="1" fill="#00ff41" opacity="0.05"/>
<rect x="0" y="160" width="900" height="1" fill="#00ff41" opacity="0.05"/>
<rect x="0" y="164" width="900" height="1" fill="#00ff41" opacity="0.05"/>
<rect x="0" y="168" width="900" height="1" fill="#00ff41" opacity="0.05"/>
<rect x="0" y="172" width="900" height="1" fill="#00ff41" opacity="0.05"/>
<rect x="0" y="176" width="900" height="1" fill="#00ff41" opacity="0.05"/>
<rect x="0" y="180" width="900" height="1" fill="#00ff41" opacity="0.05"/>
<rect x="0" y="184" width="900" height="1" fill="#00ff41" opacity="0.05"/>
<rect x="0" y="188" width="900" height="1" fill="#00ff41" opacity="0.05"/>
<rect x="0" y="192" width="900" height="1" fill="#00ff41" opacity="0.05"/>
<rect x="0" y="196" width="900" height="1" fill="#00ff41" opacity="0.05"/>
<rect x="0" y="200" width="900" height="1" fill="#00ff41" opacity="0.05"/>
<rect x="0" y="204" width="900" height="1" fill="#00ff41" opacity="0.05"/>
<rect x="0" y="208" width="900" height="1" fill="#00ff41" opacity="0.05"/>
<rect x="0" y="212" width="900" height="1" fill="#00ff41" opacity="0.05"/>
<rect x="0" y="216" width="900" height="1" fill="#00ff41" opacity="0.05"/>

  <!-- Header -->
  <text class="t h" x="28" y="55" filter="url(#glow)">Hack The Box</text>
  <text class="t s muted" x="28" y="78">Profile</text>

  <!-- Stats grid -->
  <text class="t k" x="28" y="120">POINTS</text>
  <text class="t v" x="28" y="145">—</text>

  <text class="t k" x="218" y="120">GLOBAL RANK</text>
  <text class="t v" x="218" y="145">#—</text>

  <text class="t k" x="448" y="120">FLAGS</text>
  <text class="t v" x="448" y="145">—</text>

  <text class="t k" x="588" y="120">MACHINES</text>
  <text class="t v" x="588" y="145">—</text>

  <text class="t k" x="748" y="120">CHALLENGES</text>
  <text class="t v" x="748" y="145">—</text>

  <!-- Footer -->
  <text class="t k muted" x="28" y="192">HTB public profile snapshot · updated 2026-02-19 19:38 UTC</text>
  <text class="t k" x="872" y="192" text-anchor="end">https://app.hackthebox.com/public/users/378794</text>
</svg>
