<svg xmlns="http://www.w3.org/2000/svg" width="980" height="310" viewBox="0 0 980 310">
  <defs>
    <style>
      .bg { fill: #000; }
      .card { fill: #050a05; stroke: #00ff41; stroke-width: 1.2; }
      .t { font-family: Consolas, Monaco, "Courier New", monospace; fill: #00ff41; }
      .h { font-size: 22px; font-weight: 700; }
      .s { font-size: 14px; opacity: 0.95; }
      .k { font-size: 12px; opacity: 0.80; }
      .v { font-size: 16px; font-weight: 700; }
      .muted { opacity: 0.65; }
    </style>
    <filter id="glow">
      <feGaussianBlur stdDeviation="1.2" result="coloredBlur"/>
      <feMerge>
        <feMergeNode in="coloredBlur"/>
        <feMergeNode in="SourceGraphic"/>
      </feMerge>
    </filter>
  </defs>

  <rect class="bg" x="0" y="0" width="980" height="310"/>
  <rect class="card" x="14" y="14" rx="14" ry="14" width="952" height="282"/>
  <rect x="0" y="0" width="980" height="1" fill="#00ff41" opacity="0.05"/>
<rect x="0" y="4" width="980" height="1" fill="#00ff41" opacity="0.05"/>
<rect x="0" y="8" width="980" height="1" fill="#00ff41" opacity="0.05"/>
<rect x="0" y="12" width="980" height="1" fill="#00ff41" opacity="0.05"/>
<rect x="0" y="16" width="980" height="1" fill="#00ff41" opacity="0.05"/>
<rect x="0" y="20" width="980" height="1" fill="#00ff41" opacity="0.05"/>
<rect x="0" y="24" width="980" height="1" fill="#00ff41" opacity="0.05"/>
<rect x="0" y="28" width="980" height="1" fill="#00ff41" opacity="0.05"/>
<rect x="0" y="32" width="980" height="1" fill="#00ff41" opacity="0.05"/>
<rect x="0" y="36" width="980" height="1" fill="#00ff41" opacity="0.05"/>
<rect x="0" y="40" width="980" height="1" fill="#00ff41" opacity="0.05"/>
<rect x="0" y="44" width="980" height="1" fill="#00ff41" opacity="0.05"/>
<rect x="0" y="48" width="980" height="1" fill="#00ff41" opacity="0.05"/>
<rect x="0" y="52" width="980" height="1" fill="#00ff41" opacity="0.05"/>
<rect x="0" y="56" width="980" height="1" fill="#00ff41" opacity="0.05"/>
<rect x="0" y="60" width="980" height="1" fill="#00ff41" opacity="0.05"/>
<rect x="0" y="64" width="980" height="1" fill="#00ff41" opacity="0.05"/>
<rect x="0" y="68" width="980" height="1" fill="#00ff41" opacity="0.05"/>
<rect x="0" y="72" width="980" height="1" fill="#00ff41" opacity="0.05"/>
<rect x="0" y="76" width="980" height="1" fill="#00ff41" opacity="0.05"/>
<rect x="0" y="80" width="980" height="1" fill="#00ff41" opacity="0.05"/>
<rect x="0" y="84" width="980" height="1" fill="#00ff41" opacity="0.05"/>
<rect x="0" y="88" width="980" height="1" fill="#00ff41" opacity="0.05"/>
<rect x="0" y="92" width="980" height="1" fill="#00ff41" opacity="0.05"/>
<rect x="0" y="96" width="980" height="1" fill="#00ff41" opacity="0.05"/>
<rect x="0" y="100" width="980" height="1" fill="#00ff41" opacity="0.05"/>
<rect x="0" y="104" width="980" height="1" fill="#00ff41" opacity="0.05"/>
<rect x="0" y="108" width="980" height="1" fill="#00ff41" opacity="0.05"/>
<rect x="0" y="112" width="980" height="1" fill="#00ff41" opacity="0.05"/>
<rect x="0" y="116" width="980" height="1" fill="#00ff41" opacity="0.05"/>
<rect x="0" y="120" width="980" height="1" fill="#00ff41" opacity="0.05"/>
<rect x="0" y="124" width="980" height="1" fill="#00ff41" opacity="0.05"/>
<rect x="0" y="128" width="980" height="1" fill="#00ff41" opacity="0.05"/>
<rect x="0" y="132" width="980" height="1" fill="#00ff41" opacity="0.05"/>
<rect x="0" y="136" width="980" height="1" fill="#00ff41" opacity="0.05"/>
<rect x="0" y="140" width="980" height="1" fill="#00ff41" opacity="0.05"/>
<rect x="0" y="144" width="980" height="1" fill="#00ff41" opacity="0.05"/>
<rect x="0" y="148" width="980" height="1" fill="#00ff41" opacity="0.05"/>
<rect x="0" y="152" width="980" height="1" fill="#00ff41" opacity="0.05"/>
<rect x="0" y="156" width="980" height="1" fill="#00ff41" opacity="0.05"/>
<rect x="0" y="160" width="980" height="1" fill="#00ff41" opacity="0.05"/>
<rect x="0" y="164" width="980" height="1" fill="#00ff41" opacity="0.05"/>
<rect x="0" y="168" width="980" height="1" fill="#00ff41" opacity="0.05"/>
<rect x="0" y="172" width="980" height="1" fill="#00ff41" opacity="0.05"/>
<rect x="0" y="176" width="980" height="1" fill="#00ff41" opacity="0.05"/>
<rect x="0" y="180" width="980" height="1" fill="#00ff41" opacity="0.05"/>
<rect x="0" y="184" width="980" height="1" fill="#00ff41" opacity="0.05"/>
<rect x="0" y="188" width="980" height="1" fill="#00ff41" opacity="0.05"/>
<rect x="0" y="192" width="980" height="1" fill="#00ff41" opacity="0.05"/>
<rect x="0" y="196" width="980" height="1" fill="#00ff41" opacity="0.05"/>
<rect x="0" y="200" width="980" height="1" fill="#00ff41" opacity="0.05"/>
<rect x="0" y="204" width="980" height="1" fill="#00ff41" opacity="0.05"/>
<rect x="0" y="208" width="980" height="1" fill="#00ff41" opacity="0.05"/>
<rect x="0" y="212" width="980" height="1" fill="#00ff41" opacity="0.05"/>
<rect x="0" y="216" width="980" height="1" fill="#00ff41" opacity="0.05"/>
<rect x="0" y="220" width="980" height="1" fill="#00ff41" opacity="0.05"/>
<rect x="0" y="224" width="980" height="1" fill="#00ff41" opacity="0.05"/>
<rect x="0" y="228" width="980" height="1" fill="#00ff41" opacity="0.05"/>
<rect x="0" y="232" width="980" height="1" fill="#00ff41" opacity="0.05"/>
<rect x="0" y="236" width="980" height="1" fill="#00ff41" opacity="0.05"/>
<rect x="0" y="240" width="980" height="1" fill="#00ff41" opacity="0.05"/>
<rect x="0" y="244" width="980" height="1" fill="#00ff41" opacity="0.05"/>
<rect x="0" y="248" width="980" height="1" fill="#00ff41" opacity="0.05"/>
<rect x="0" y="252" width="980" height="1" fill="#00ff41" opacity="0.05"/>
<rect x="0" y="256" width="980" height="1" fill="#00ff41" opacity="0.05"/>
<rect x="0" y="260" width="980" height="1" fill="#00ff41" opacity="0.05"/>
<rect x="0" y="264" width="980" height="1" fill="#00ff41" opacity="0.05"/>
<rect x="0" y="268" width="980" height="1" fill="#00ff41" opacity="0.05"/>
<rect x="0" y="272" width="980" height="1" fill="#00ff41" opacity="0.05"/>
<rect x="0" y="276" width="980" height="1" fill="#00ff41" opacity="0.05"/>
<rect x="0" y="280" width="980" height="1" fill="#00ff41" opacity="0.05"/>
<rect x="0" y="284" width="980" height="1" fill="#00ff41" opacity="0.05"/>
<rect x="0" y="288" width="980" height="1" fill="#00ff41" opacity="0.05"/>
<rect x="0" y="292" width="980" height="1" fill="#00ff41" opacity="0.05"/>
<rect x="0" y="296" width="980" height="1" fill="#00ff41" opacity="0.05"/>
<rect x="0" y="300" width="980" height="1" fill="#00ff41" opacity="0.05"/>
<rect x="0" y="304" width="980" height="1" fill="#00ff41" opacity="0.05"/>
<rect x="0" y="308" width="980" height="1" fill="#00ff41" opacity="0.05"/>

  <text class="t h" x="28" y="55" filter="url(#glow)">Hack The Box</text>
  <text class="t s muted" x="28" y="78">— · https://app.hackthebox.com/public/users/378794</text>

  <text class="t k" x="28" y="120">POINTS</text>
  <text class="t v" x="28" y="145">—</text>

  <text class="t k" x="188" y="120">GLOBAL</text>
  <text class="t v" x="188" y="145">#—</text>

  <text class="t k" x="348" y="120">FLAGS</text>
  <text class="t v" x="348" y="145">—</text>

  <text class="t k" x="468" y="120">MACHINES</text>
  <text class="t v" x="468" y="145">—</text>

  <text class="t k" x="618" y="120">CHALLENGES</text>
  <text class="t v" x="618" y="145">—</text>

  <text class="t k" x="28" y="190">PRO LABS</text>
  <text class="t v" x="28" y="215">—/—</text>

  <text class="t k" x="228" y="190">MINI PRO LABS</text>
  <text class="t v" x="228" y="215">—/—</text>

  <text class="t k" x="468" y="190">FORTRESSES</text>
  <text class="t v" x="468" y="215">—/—</text>

  <text class="t k" x="28" y="255">COMPLETED</text>
  <text class="t s" x="28" y="277">—</text>

  <text class="t k muted" x="28" y="282">updated 2026-02-19 19:57 UTC</text>
</svg>
