<svg xmlns="http://www.w3.org/2000/svg" width="1080" height="408" viewBox="0 0 1080 408">
  <defs>
    <style>
      .bg { fill: #000; }
      .card { fill: #050a05; stroke: #00ff41; stroke-width: 1.2; }
      .t { font-family: Consolas, Monaco, "Courier New", monospace; fill: #00ff41; }
      .h { font-size: 22px; font-weight: 700; }
      .s { font-size: 14px; opacity: 0.95; }
      .k { font-size: 12px; opacity: 0.80; }
      .v { font-size: 16px; font-weight: 700; }
      .muted { opacity: 0.65; }
    </style>
    <filter id="glow">
      <feGaussianBlur stdDeviation="1.2" result="coloredBlur"/>
      <feMerge>
        <feMergeNode in="coloredBlur"/>
        <feMergeNode in="SourceGraphic"/>
      </feMerge>
    </filter>
  </defs>

  <rect class="bg" x="0" y="0" width="1080" height="408"/>
  <rect class="card" x="14" y="14" rx="14" ry="14" width="1052" height="380"/>
  <rect x="0" y="0" width="1080" height="1" fill="#00ff41" opacity="0.05"/>
<rect x="0" y="4" width="1080" height="1" fill="#00ff41" opacity="0.05"/>
<rect x="0" y="8" width="1080" height="1" fill="#00ff41" opacity="0.05"/>
<rect x="0" y="12" width="1080" height="1" fill="#00ff41" opacity="0.05"/>
<rect x="0" y="16" width="1080" height="1" fill="#00ff41" opacity="0.05"/>
<rect x="0" y="20" width="1080" height="1" fill="#00ff41" opacity="0.05"/>
<rect x="0" y="24" width="1080" height="1" fill="#00ff41" opacity="0.05"/>
<rect x="0" y="28" width="1080" height="1" fill="#00ff41" opacity="0.05"/>
<rect x="0" y="32" width="1080" height="1" fill="#00ff41" opacity="0.05"/>
<rect x="0" y="36" width="1080" height="1" fill="#00ff41" opacity="0.05"/>
<rect x="0" y="40" width="1080" height="1" fill="#00ff41" opacity="0.05"/>
<rect x="0" y="44" width="1080" height="1" fill="#00ff41" opacity="0.05"/>
<rect x="0" y="48" width="1080" height="1" fill="#00ff41" opacity="0.05"/>
<rect x="0" y="52" width="1080" height="1" fill="#00ff41" opacity="0.05"/>
<rect x="0" y="56" width="1080" height="1" fill="#00ff41" opacity="0.05"/>
<rect x="0" y="60" width="1080" height="1" fill="#00ff41" opacity="0.05"/>
<rect x="0" y="64" width="1080" height="1" fill="#00ff41" opacity="0.05"/>
<rect x="0" y="68" width="1080" height="1" fill="#00ff41" opacity="0.05"/>
<rect x="0" y="72" width="1080" height="1" fill="#00ff41" opacity="0.05"/>
<rect x="0" y="76" width="1080" height="1" fill="#00ff41" opacity="0.05"/>
<rect x="0" y="80" width="1080" height="1" fill="#00ff41" opacity="0.05"/>
<rect x="0" y="84" width="1080" height="1" fill="#00ff41" opacity="0.05"/>
<rect x="0" y="88" width="1080" height="1" fill="#00ff41" opacity="0.05"/>
<rect x="0" y="92" width="1080" height="1" fill="#00ff41" opacity="0.05"/>
<rect x="0" y="96" width="1080" height="1" fill="#00ff41" opacity="0.05"/>
<rect x="0" y="100" width="1080" height="1" fill="#00ff41" opacity="0.05"/>
<rect x="0" y="104" width="1080" height="1" fill="#00ff41" opacity="0.05"/>
<rect x="0" y="108" width="1080" height="1" fill="#00ff41" opacity="0.05"/>
<rect x="0" y="112" width="1080" height="1" fill="#00ff41" opacity="0.05"/>
<rect x="0" y="116" width="1080" height="1" fill="#00ff41" opacity="0.05"/>
<rect x="0" y="120" width="1080" height="1" fill="#00ff41" opacity="0.05"/>
<rect x="0" y="124" width="1080" height="1" fill="#00ff41" opacity="0.05"/>
<rect x="0" y="128" width="1080" height="1" fill="#00ff41" opacity="0.05"/>
<rect x="0" y="132" width="1080" height="1" fill="#00ff41" opacity="0.05"/>
<rect x="0" y="136" width="1080" height="1" fill="#00ff41" opacity="0.05"/>
<rect x="0" y="140" width="1080" height="1" fill="#00ff41" opacity="0.05"/>
<rect x="0" y="144" width="1080" height="1" fill="#00ff41" opacity="0.05"/>
<rect x="0" y="148" width="1080" height="1" fill="#00ff41" opacity="0.05"/>
<rect x="0" y="152" width="1080" height="1" fill="#00ff41" opacity="0.05"/>
<rect x="0" y="156" width="1080" height="1" fill="#00ff41" opacity="0.05"/>
<rect x="0" y="160" width="1080" height="1" fill="#00ff41" opacity="0.05"/>
<rect x="0" y="164" width="1080" height="1" fill="#00ff41" opacity="0.05"/>
<rect x="0" y="168" width="1080" height="1" fill="#00ff41" opacity="0.05"/>
<rect x="0" y="172" width="1080" height="1" fill="#00ff41" opacity="0.05"/>
<rect x="0" y="176" width="1080" height="1" fill="#00ff41" opacity="0.05"/>
<rect x="0" y="180" width="1080" height="1" fill="#00ff41" opacity="0.05"/>
<rect x="0" y="184" width="1080" height="1" fill="#00ff41" opacity="0.05"/>
<rect x="0" y="188" width="1080" height="1" fill="#00ff41" opacity="0.05"/>
<rect x="0" y="192" width="1080" height="1" fill="#00ff41" opacity="0.05"/>
<rect x="0" y="196" width="1080" height="1" fill="#00ff41" opacity="0.05"/>
<rect x="0" y="200" width="1080" height="1" fill="#00ff41" opacity="0.05"/>
<rect x="0" y="204" width="1080" height="1" fill="#00ff41" opacity="0.05"/>
<rect x="0" y="208" width="1080" height="1" fill="#00ff41" opacity="0.05"/>
<rect x="0" y="212" width="1080" height="1" fill="#00ff41" opacity="0.05"/>
<rect x="0" y="216" width="1080" height="1" fill="#00ff41" opacity="0.05"/>
<rect x="0" y="220" width="1080" height="1" fill="#00ff41" opacity="0.05"/>
<rect x="0" y="224" width="1080" height="1" fill="#00ff41" opacity="0.05"/>
<rect x="0" y="228" width="1080" height="1" fill="#00ff41" opacity="0.05"/>
<rect x="0" y="232" width="1080" height="1" fill="#00ff41" opacity="0.05"/>
<rect x="0" y="236" width="1080" height="1" fill="#00ff41" opacity="0.05"/>
<rect x="0" y="240" width="1080" height="1" fill="#00ff41" opacity="0.05"/>
<rect x="0" y="244" width="1080" height="1" fill="#00ff41" opacity="0.05"/>
<rect x="0" y="248" width="1080" height="1" fill="#00ff41" opacity="0.05"/>
<rect x="0" y="252" width="1080" height="1" fill="#00ff41" opacity="0.05"/>
<rect x="0" y="256" width="1080" height="1" fill="#00ff41" opacity="0.05"/>
<rect x="0" y="260" width="1080" height="1" fill="#00ff41" opacity="0.05"/>
<rect x="0" y="264" width="1080" height="1" fill="#00ff41" opacity="0.05"/>
<rect x="0" y="268" width="1080" height="1" fill="#00ff41" opacity="0.05"/>
<rect x="0" y="272" width="1080" height="1" fill="#00ff41" opacity="0.05"/>
<rect x="0" y="276" width="1080" height="1" fill="#00ff41" opacity="0.05"/>
<rect x="0" y="280" width="1080" height="1" fill="#00ff41" opacity="0.05"/>
<rect x="0" y="284" width="1080" height="1" fill="#00ff41" opacity="0.05"/>
<rect x="0" y="288" width="1080" height="1" fill="#00ff41" opacity="0.05"/>
<rect x="0" y="292" width="1080" height="1" fill="#00ff41" opacity="0.05"/>
<rect x="0" y="296" width="1080" height="1" fill="#00ff41" opacity="0.05"/>
<rect x="0" y="300" width="1080" height="1" fill="#00ff41" opacity="0.05"/>
<rect x="0" y="304" width="1080" height="1" fill="#00ff41" opacity="0.05"/>
<rect x="0" y="308" width="1080" height="1" fill="#00ff41" opacity="0.05"/>
<rect x="0" y="312" width="1080" height="1" fill="#00ff41" opacity="0.05"/>
<rect x="0" y="316" width="1080" height="1" fill="#00ff41" opacity="0.05"/>
<rect x="0" y="320" width="1080" height="1" fill="#00ff41" opacity="0.05"/>
<rect x="0" y="324" width="1080" height="1" fill="#00ff41" opacity="0.05"/>
<rect x="0" y="328" width="1080" height="1" fill="#00ff41" opacity="0.05"/>
<rect x="0" y="332" width="1080" height="1" fill="#00ff41" opacity="0.05"/>
<rect x="0" y="336" width="1080" height="1" fill="#00ff41" opacity="0.05"/>
<rect x="0" y="340" width="1080" height="1" fill="#00ff41" opacity="0.05"/>
<rect x="0" y="344" width="1080" height="1" fill="#00ff41" opacity="0.05"/>
<rect x="0" y="348" width="1080" height="1" fill="#00ff41" opacity="0.05"/>
<rect x="0" y="352" width="1080" height="1" fill="#00ff41" opacity="0.05"/>
<rect x="0" y="356" width="1080" height="1" fill="#00ff41" opacity="0.05"/>
<rect x="0" y="360" width="1080" height="1" fill="#00ff41" opacity="0.05"/>
<rect x="0" y="364" width="1080" height="1" fill="#00ff41" opacity="0.05"/>
<rect x="0" y="368" width="1080" height="1" fill="#00ff41" opacity="0.05"/>
<rect x="0" y="372" width="1080" height="1" fill="#00ff41" opacity="0.05"/>
<rect x="0" y="376" width="1080" height="1" fill="#00ff41" opacity="0.05"/>
<rect x="0" y="380" width="1080" height="1" fill="#00ff41" opacity="0.05"/>
<rect x="0" y="384" width="1080" height="1" fill="#00ff41" opacity="0.05"/>
<rect x="0" y="388" width="1080" height="1" fill="#00ff41" opacity="0.05"/>
<rect x="0" y="392" width="1080" height="1" fill="#00ff41" opacity="0.05"/>
<rect x="0" y="396" width="1080" height="1" fill="#00ff41" opacity="0.05"/>
<rect x="0" y="400" width="1080" height="1" fill="#00ff41" opacity="0.05"/>
<rect x="0" y="404" width="1080" height="1" fill="#00ff41" opacity="0.05"/>

  <text class="t h" x="28" y="55" filter="url(#glow)">0x01r3ddw4rf</text>
  <text class="t s muted" x="28" y="78">Pro Hacker · https://app.hackthebox.com/public/users/378794</text>

  <text class="t k" x="28" y="120">POINTS</text>
  <text class="t v" x="28" y="145">192</text>

  <text class="t k" x="198" y="120">GLOBAL</text>
  <text class="t v" x="198" y="145">#736</text>

  <text class="t k" x="368" y="120">USER OWNS</text>
  <text class="t v" x="368" y="145">67</text>

  <text class="t k" x="548" y="120">SYSTEM OWNS</text>
  <text class="t v" x="548" y="145">53</text>

  <text class="t k" x="748" y="120">RESPECTS</text>
  <text class="t v" x="748" y="145">2</text>

  <text class="t k" x="928" y="120">CHALLENGES</text>
  <text class="t v" x="928" y="145">23/188</text>

  <text class="t k" x="28" y="195">PRO LABS</text>
  <text class="t v" x="28" y="220">11/30</text>

  <text class="t k" x="268" y="195">FORTRESSES</text>
  <text class="t v" x="268" y="220">6/6</text>

  <text class="t k" x="508" y="195">SEASON</text>
  <text class="t s" x="508" y="218">Season 10 · Silver</text>
  <text class="t v" x="508" y="240">#1707/8064 · 185 pts · 7/26 flags</text>
  <text class="t s muted" x="508" y="262">next rank flags: 3/7</text>

  <text class="t k" x="28" y="305">COMPLETED PRO LABS</text>
  <text class="t s" x="28" y="325">Dante · P.O.O · Alchemy · Zephyr · Xen · Offshore · RastaLabs · Intercept · Kaiju · Klendathu</text>
  <text class="t s" x="28" y="343">Heron</text>

  <text class="t k muted" x="28" y="380">updated 2026-02-24 06:54 UTC</text>
</svg>
